<?xml version="1.0" encoding="UTF-8" standalone="no"?>
<svg
   xmlns:sketch="http://www.bohemiancoding.com/sketch/ns"
   xmlns:dc="http://purl.org/dc/elements/1.1/"
   xmlns:cc="http://creativecommons.org/ns#"
   xmlns:rdf="http://www.w3.org/1999/02/22-rdf-syntax-ns#"
   xmlns:svg="http://www.w3.org/2000/svg"
   xmlns="http://www.w3.org/2000/svg"
   xmlns:sodipodi="http://sodipodi.sourceforge.net/DTD/sodipodi-0.dtd"
   xmlns:inkscape="http://www.inkscape.org/namespaces/inkscape"
   x="0px"
   y="0px"
   width="112"
   height="112"
   viewBox="0 0 112 112"
   version="1.1"
   id="svg436"
   sodipodi:docname="Neovide Logo Suggestion Intertwined.svg"
   inkscape:version="1.0.2 (e86c870879, 2021-01-15)"
   inkscape:export-filename="/home/chris/Pictures/Inkscape/Neovide Logo Suggestion Intertwined.png"
   inkscape:export-xdpi="219.42999"
   inkscape:export-ydpi="219.42999">
  <metadata
     id="metadata442">
    <rdf:RDF>
      <cc:Work
         rdf:about="">
        <dc:format>image/svg+xml</dc:format>
        <dc:type
           rdf:resource="http://purl.org/dc/dcmitype/StillImage" />
        <dc:title />
      </cc:Work>
    </rdf:RDF>
  </metadata>
  <defs
     id="defs440">
    <linearGradient
       x1="49.021549"
       y1="-0.079835393"
       x2="49.021549"
       y2="97.845657"
       id="linearGradient-1"
       gradientTransform="matrix(0.24329525,0,0,1.1421297,9.8754038,0.15461804)"
       gradientUnits="userSpaceOnUse">
      <stop
         stop-color="#16B0ED"
         stop-opacity="0.800235524"
         offset="0%"
         id="stop197" />
      <stop
         stop-color="#0F59B2"
         stop-opacity="0.83700023"
         offset="100%"
         id="stop199" />
    </linearGradient>
    <linearGradient
       x1="326.17365"
       y1="-0.069164939"
       x2="326.17365"
       y2="98.851547"
       id="linearGradient-2"
       gradientTransform="matrix(-0.24579642,0,0,1.1305076,170.12543,0.15461804)"
       gradientUnits="userSpaceOnUse">
      <stop
         stop-color="#7DB643"
         offset="0%"
         id="stop202" />
      <stop
         stop-color="#367533"
         offset="100%"
         id="stop204" />
    </linearGradient>
    <linearGradient
       x1="103.88479"
       y1="-0.11508822"
       x2="103.88479"
       y2="178.55785"
       id="linearGradient-3"
       gradientTransform="matrix(0.44387055,0,0,0.62602647,9.8754038,0.15461804)"
       gradientUnits="userSpaceOnUse">
      <stop
         stop-color="#88C649"
         stop-opacity="0.8"
         offset="0%"
         id="stop207" />
      <stop
         stop-color="#439240"
         stop-opacity="0.84"
         offset="100%"
         id="stop209" />
    </linearGradient>
  </defs>
  <sodipodi:namedview
     pagecolor="#ffffff"
     bordercolor="#666666"
     borderopacity="1"
     objecttolerance="10"
     gridtolerance="10"
     guidetolerance="10"
     inkscape:pageopacity="0"
     inkscape:pageshadow="2"
     inkscape:window-width="1920"
     inkscape:window-height="1011"
     id="namedview438"
     showgrid="false"
     inkscape:zoom="7.2678571"
     inkscape:cx="56"
     inkscape:cy="56"
     inkscape:window-x="0"
     inkscape:window-y="0"
     inkscape:window-maximized="1"
     inkscape:current-layer="svg436"
     inkscape:document-rotation="0" />
  <path
     d="M 9.8897107,24.117555 33.714517,0.06343567 V 111.93546 L 9.8897107,88.159149 Z"
     id="Left---green"
     fill="url(#linearGradient-1)"
     sketch:type="MSShapeGroup"
     style="fill:url(#linearGradient-1);stroke-width:0.527138"
     sodipodi:nodetypes="ccccc" />
  <path
     d="M 101.9471,24.301201 77.795934,0.03297198 78.285482,111.90704 102.11029,88.130743 Z"
     id="Right---blue"
     fill="url(#linearGradient-2)"
     sketch:type="MSShapeGroup"
     style="fill:url(#linearGradient-2);stroke-width:0.527138"
     sodipodi:nodetypes="ccccc" />
  <path
     id="path434"
     d="m 56.002932,3.7162041 c -0.5055,0 -1.011156,0.22297 -1.285157,0.667968 l -2.720703,4.394532 -1.28125,0.125 -3.523437,-3.779297 c -0.714,-0.764 -2.155485,-0.480094 -2.521485,0.503906 l -1.804687,4.8281249 -1.244141,0.376953 -4.185547,-3.0117189 c -0.85,-0.614 -2.208953,-0.04762 -2.376953,0.984376 l -0.830078,5.0917959 -1.142578,0.613282 -4.693359,-2.140625 c -0.954001,-0.436 -2.178672,0.383687 -2.138672,1.429687 l 0.179687,5.166016 -0.992187,0.814453 -5.029297,-1.185547 c -1.022,-0.238 -2.060313,0.798315 -1.820312,1.820312 l 1.185546,5.03125 -0.814452,0.990235 -5.166016,-0.179688 c -1.042,-0.03 -1.863687,1.182672 -1.429688,2.138672 l 2.140626,4.695313 -0.613282,1.142578 -5.0898445,0.828125 c -1.033999,0.168 -1.594376,1.526953 -0.984374,2.376953 l 3.0117185,4.181641 -0.378906,1.246093 -4.8281255,1.806641 c -0.98,0.366 -1.266,1.805484 -0.5,2.521484 l 3.777344,3.523438 -0.125,1.279297 -4.394531,2.720703 c -0.890002,0.55 -0.890002,2.022312 0,2.570312 l 4.394531,2.720703 0.125,1.279297 -3.777344,3.523438 c -0.766,0.714 -0.48,2.153484 0.5,2.521484 l 4.8281255,1.804688 0.378906,1.246093 -3.0117185,4.183594 c -0.612,0.852 -0.04963,2.209 0.984374,2.375 l 5.0898435,0.828125 0.613283,1.144531 -2.140626,4.69336 c -0.435998,0.954 0.387688,2.180668 1.429687,2.138668 l 5.164062,-0.17968 0.816407,0.99218 -1.185547,5.03321 c -0.24,1.02 0.798312,2.05445 1.820312,1.81445 l 5.029297,-1.18359 0.992188,0.8125 -0.179688,5.16796 c -0.04,1.04601 1.184672,1.86374 2.138672,1.427736 l 4.693359,-2.138666 1.142579,0.61328 0.830078,5.08789 c 0.168,1.036 1.526953,1.59633 2.376953,0.98633 l 4.183594,-3.01367 1.246093,0.3789 1.804688,4.82617 c 0.366,0.98 1.807484,1.268 2.521484,0.5 l 3.523438,-3.77539 1.28125,0.12696 2.71875,4.39453 c 0.548001,0.886 2.022266,0.888 2.572266,0 l 2.71875,-4.39453 1.28125,-0.12696 3.521484,3.77539 c 0.714,0.768 2.155485,0.48 2.521485,-0.5 l 1.804687,-4.82617 1.246094,-0.3789 4.183594,3.01367 c 0.849999,0.61 2.206999,0.0477 2.375,-0.98633 l 0.830078,-5.08789 1.144531,-0.61328 4.693359,2.138666 c 0.954,0.436004 2.176673,-0.379706 2.138673,-1.427736 l -0.18164,-5.16796 0.99219,-0.8125 5.03125,1.18359 c 1.022,0.24 2.05835,-0.79445 1.81836,-1.81445 l -1.18555,-5.03321 0.81445,-0.99218 5.16602,0.17968 c 1.042,0.042 1.865727,-1.184668 1.42773,-2.138668 l -2.13867,-4.69336 0.61133,-1.144531 5.089837,-0.828125 c 1.036,-0.166 1.59838,-1.523 0.98438,-2.375 l -3.00977,-4.183594 0.37695,-1.246093 4.82813,-1.804688 c 0.982,-0.368 1.268,-1.807484 0.5,-2.521484 l -3.77539,-3.523438 0.125,-1.279297 4.39453,-2.720703 c 0.89,-0.548 0.89,-2.020312 0,-2.570312 l -4.39453,-2.720703 -0.125,-1.279297 3.77734,-3.523438 c 0.768,-0.716 0.48005,-2.155484 -0.50195,-2.521484 l -4.82617,-1.806641 -0.37891,-1.246093 3.01172,-4.181641 c 0.614,-0.85 0.0496,-2.206953 -0.98438,-2.376953 l -5.089837,-0.828125 -0.61133,-1.142578 2.13867,-4.695313 c 0.437997,-0.956 -0.37573,-2.178672 -1.42773,-2.138672 l -5.16602,0.179688 -0.8164,-0.990235 1.1875,-5.03125 c 0.24,-1.021999 -0.79831,-2.060312 -1.82031,-1.820312 l -5.03125,1.185547 -0.99219,-0.814453 0.18164,-5.166016 c 0.04,-1.046 -1.184673,-1.863687 -2.138673,-1.429687 l -4.693359,2.140625 -1.142579,-0.613282 -0.830078,-5.0917959 c -0.168,-1.032002 -1.526953,-1.596373 -2.376953,-0.984376 l -4.183594,3.0117189 -1.24414,-0.376953 -1.804688,-4.8281249 c -0.366,-0.984 -1.809437,-1.267906 -2.523437,-0.503906 l -3.521485,3.779297 -1.279296,-0.125 -2.720704,-4.394532 c -0.275,-0.445 -0.779656,-0.667968 -1.285155,-0.667968 z m -0.15625,9.2128899 c 1.712233,0.0057 3.097346,1.395178 3.097656,3.107422 0,4.144529 -6.216797,4.144529 -6.216797,0 3.1e-4,-1.720635 1.398516,-3.113589 3.119141,-3.107422 z m 7.203125,5.119141 c 11.048071,2.069515 20.627455,8.891939 26.195317,18.65625 l -3.66602,8.279297 c -0.633,1.433 0.0124,3.109141 1.44141,3.74414 l 7.05859,3.134766 c 0.125759,1.265626 0.188329,2.536736 0.1875,3.808594 h 0.041 c 2.41e-4,8.929557 -3.123999,17.578227 -8.83204,24.449219 l -0.0137,-0.01172 c -0.690963,0.821814 -1.416218,1.614182 -2.173826,2.375 L 76.71382,81.069718 c -1.531,-0.328 -3.037235,0.645688 -3.365235,2.179688 l -1.558593,7.281253 c -10.15196,4.59901 -21.804526,4.54338 -31.91211,-0.15235 l -1.558594,-7.281247 c -0.328,-1.532 -1.833281,-2.506734 -3.363281,-2.177734 l -6.427734,1.378906 C 27.5405,81.281036 26.610028,80.209722 25.741162,79.08925 l -0.03125,0.02344 c -3.290711,-4.24422 -5.65106,-9.132612 -6.927734,-14.347656 l 0.03906,-0.0098 c -1.053169,-4.31657 -1.346722,-8.783776 -0.867134,-13.20114 l 6.693359,-2.974609 c 1.43,-0.635 2.076407,-2.311141 1.441406,-3.744141 l -0.46289,-1.046875 h 0.0059 l -3.041015,-6.84375 c 1.500691,-2.672533 3.31395,-5.16262 5.414062,-7.408203 l 0.02734,0.02539 C 33.584502,23.608892 40.89114,19.570362 48.90336,18.056047 l 4.785156,5.021484 c 1.082,1.133 2.873859,1.174791 4.005859,0.0918 z m -44.28125,23.019531 c 1.71376,0.0046 3.100372,1.395609 3.099609,3.109375 0,4.144529 -6.216796,4.144529 -6.216796,0 -7.69e-4,-1.720632 1.396562,-3.114461 3.117187,-3.109375 z m 74.154297,0.146485 c 1.712239,0.0057 3.09735,1.395176 3.09766,3.107421 0,4.144532 -6.216801,4.144532 -6.216801,0 3.1e-4,-1.720635 1.398521,-3.113588 3.119141,-3.107421 z m -60.103516,43.65039 h 0.002 c 1.712997,0.0057 3.098425,1.396369 3.097656,3.109379 0,4.14453 -6.216797,4.14453 -6.216797,0 -7.71e-4,-1.72063 1.39656,-3.114465 3.117187,-3.109379 z m 46.052734,0.146489 c 1.712234,0.006 3.097347,1.39518 3.097657,3.10742 0,4.14453 -6.216797,4.14453 -6.216797,0 3.09e-4,-1.72063 1.398516,-3.11359 3.11914,-3.10742 z"
     style="opacity:1;fill:#1a1a1a;fill-opacity:1" />
  <path
     d="M 33.698632,0.08256977 95.640632,94.603758 78.307394,111.93656 16.332976,17.624598 Z"
     id="Cross---blue"
     fill="url(#linearGradient-3)"
     sketch:type="MSShapeGroup"
     style="fill:url(#linearGradient-3);stroke-width:0.527138" />
  <path
     d="m 33.719948,43.924016 -0.03295,3.722914 -19.12488,-28.234842 1.770855,-1.803963 z"
     id="Shadow"
     fill-opacity="0.13"
     fill="#000000"
     sketch:type="MSShapeGroup"
     style="stroke-width:0.527138" />
</svg>
